<svg width="319" height="33" viewBox="0 0 319 33" fill="none" xmlns="http://www.w3.org/2000/svg">
<path d="M105.539 17.8378V14.0473L19.3204 13.8243C13.745 13.2892 11.953 7.95267 11.7538 5.35132C7.29359 6.77835 7.77148 11 8.56795 12.9324H4.58556C2.99261 13.2297 -0.153468 14.2256 0.0058275 15.831C0.165123 17.4365 3.52359 18.4324 5.18292 18.7297H8.56795C6.8157 23.1892 9.96178 25.4932 11.7538 26.0878C12.2317 19.4878 16.9973 17.8378 19.3204 17.8378H105.539Z" fill="#5B3E23"/>
<path d="M213.461 17.8378V14.0473L299.68 13.8243C305.255 13.2892 307.047 7.95267 307.246 5.35132C311.706 6.77835 311.229 11 310.432 12.9324H314.414C316.007 13.2297 319.153 14.2256 318.994 15.831C318.835 17.4365 315.476 18.4324 313.817 18.7297H310.432C312.184 23.1892 309.038 25.4932 307.246 26.0878C306.768 19.4878 302.003 17.8378 299.68 17.8378H213.461Z" fill="#5B3E23"/>
<path d="M107.132 17.6148V14.0472H109.919V17.6148H107.132Z" fill="#5B3E23"/>
<path d="M211.868 17.6148V14.0472H209.081V17.6148H211.868Z" fill="#5B3E23"/>
<path d="M157.31 18.5067H154.323C151.455 22.2527 148.482 23.6351 147.354 23.8581H142.973C139.986 23.4122 136.8 19.1757 136.601 15.1622C136.402 11.1487 138.991 8.02704 141.38 7.80407C143.292 7.62569 144.964 7.72974 145.562 7.80407C146.517 7.44731 148.084 9.58785 148.748 10.7027V12.7095C148.748 13.9581 147.818 14.8649 147.354 15.1622H146.159V13.8243C146.159 13.0811 145.681 11.5946 143.77 11.5946C141.858 11.5946 141.38 13.2297 141.38 14.0473C141.062 16.723 143.371 17.8379 144.566 18.0608H147.354C152.929 16.723 152.929 4.45947 143.371 4.45947C135.725 4.45947 133.415 12.3379 133.216 16.277C132.154 15.3108 129.433 12.754 127.044 10.2567C124.654 7.75942 121.004 7.43243 119.477 7.58109C117.353 7.50677 112.866 8.69596 111.911 14.0473C110.955 19.3987 114.3 22.0743 116.092 22.7433H119.477C122.663 21.8514 123.194 18.8041 123.061 17.3919C122.902 14.8946 120.871 14.4189 119.875 14.4933C118.083 14.4933 117.685 15.8311 117.486 17.1689C117.327 18.2392 118.216 19.1014 118.681 19.3987C118.681 19.7554 118.415 19.8446 118.282 19.8446H116.889C116.092 19.473 114.499 18.0608 114.499 15.3851C114.499 12.7095 116.49 11.2973 117.486 10.9257C120.035 10.2121 121.999 10.6283 122.663 10.9257C124.455 10.7027 130.23 18.0608 133.415 21.8513C135.964 24.8838 140.053 26.3851 141.778 26.7567H146.557C151.495 26.7567 155.783 21.2567 157.31 18.5067Z" fill="#5B3E23"/>
<path d="M161.69 18.5067H164.677C167.545 22.2527 170.518 23.6351 171.646 23.8581H176.027C179.014 23.4122 182.2 19.1757 182.399 15.1622C182.598 11.1487 180.009 8.02704 177.62 7.80407C175.708 7.62569 174.036 7.72974 173.438 7.80407C172.483 7.44731 170.916 9.58785 170.252 10.7027V12.7095C170.252 13.9581 171.182 14.8649 171.646 15.1622H172.841V13.8243C172.841 13.0811 173.319 11.5946 175.23 11.5946C177.142 11.5946 177.62 13.2297 177.62 14.0473C177.938 16.723 175.629 17.8379 174.434 18.0608H171.646C166.071 16.723 166.071 4.45947 175.629 4.45947C183.275 4.45947 185.585 12.3379 185.784 16.277C186.846 15.3108 189.567 12.754 191.956 10.2567C194.346 7.75942 197.996 7.43243 199.523 7.58109C201.647 7.50677 206.134 8.69596 207.089 14.0473C208.045 19.3987 204.7 22.0743 202.908 22.7433H199.523C196.337 21.8514 195.806 18.8041 195.939 17.3919C196.098 14.8946 198.129 14.4189 199.125 14.4933C200.917 14.4933 201.315 15.8311 201.514 17.1689C201.673 18.2392 200.784 19.1014 200.319 19.3987C200.319 19.7554 200.585 19.8446 200.718 19.8446H202.111C202.908 19.473 204.501 18.0608 204.501 15.3851C204.501 12.7095 202.51 11.2973 201.514 10.9257C198.965 10.2121 197.001 10.6283 196.337 10.9257C194.545 10.7027 188.77 18.0608 185.585 21.8513C183.036 24.8838 178.947 26.3851 177.222 26.7567H172.443C167.505 26.7567 163.217 21.2567 161.69 18.5067Z" fill="#5B3E23"/>
<path d="M127.84 8.24998L132.021 13.1554L133.614 6.24323C133.548 4.97971 132.698 2.63107 129.831 3.34458C126.964 4.05809 127.309 6.91215 127.84 8.24998Z" fill="#5B3E23"/>
<path d="M190.562 8.60521L186.381 13.5106L184.788 6.59845C184.854 5.33494 185.704 2.98629 188.571 3.6998C191.438 4.41332 191.093 7.26737 190.562 8.60521Z" fill="#5B3E23"/>
<rect x="151.734" y="13.8243" width="15.5313" height="4.01351" rx="2.00676" fill="#5B3E23"/>
<path d="M156.911 11.3716C155.318 7.62565 150.805 5.20268 148.748 4.45943C150.341 0.356709 154.323 2.00674 156.115 3.34459C156.049 2.22973 156.553 0 159.102 0C161.65 0 162.288 2.37836 162.288 3.56754C166.907 -2.65805e-05 168.859 2.67565 169.257 4.45943C166.23 4.45943 162.42 9.06754 160.894 11.3716C160.416 12.4419 159.5 12.8581 159.102 12.9324C157.987 12.9324 157.177 11.8919 156.911 11.3716Z" fill="#5B3E23"/>
<path d="M157.111 21.6284C155.518 25.3744 151.004 27.7973 148.947 28.5406C150.54 32.6433 154.522 30.9933 156.314 29.6554C156.248 30.7703 156.752 33 159.301 33C161.85 33 162.487 30.6216 162.487 29.4325C167.106 33 169.058 30.3244 169.456 28.5406C166.429 28.5406 162.62 23.9325 161.093 21.6284C160.615 20.5581 159.699 20.1419 159.301 20.0676C158.186 20.0676 157.376 21.1081 157.111 21.6284Z" fill="#5B3E23"/>
</svg>
