<svg width="151" height="195" viewBox="0 0 151 195" fill="none" xmlns="http://www.w3.org/2000/svg">
<path d="M72.3362 78.1868C44.9277 78.1868 19.9234 63.3502 18 60C42.6196 70.7206 103.591 64.4669 131 60C126.512 95.0973 117.151 166.919 115.613 173.428C103.303 181.086 81.6326 183 72.3362 183V78.1868Z" fill="#C09E7D"/>
<path d="M132.318 21.6758C131.518 23.2758 124.985 26.3424 121.818 27.6758C125.018 27.6758 128.818 26.6758 130.318 26.1758C143.318 21.1758 151.318 35.1758 150.318 43.6758C149.318 52.1758 136.318 58.1758 134.818 59.6758C98.0181 75.2758 51.1514 70.5091 32.3181 66.1758C2.71811 60.1758 -1.34856 46.3424 0.318108 40.1758C9.31811 53.6758 49.8181 61.6758 93.8181 58.1758C129.018 55.3758 141.151 44.0091 142.818 38.6758C111.318 55.6758 84.8181 55.6758 52.8181 53.6758C27.2181 52.0758 12.1514 44.0091 7.81811 40.1758C-3.7819 28.9758 9.98477 24.8424 18.3181 24.1758C40.3181 38.9758 75.4848 36.3424 90.3181 33.1758C35.8181 34.1758 25.8181 26.6758 21.3181 22.6758C17.7181 19.4758 20.4848 14.6758 22.3181 12.6758C37.5181 32.2758 85.3181 28.5091 107.318 24.1758C57.8181 29.1758 23.8181 16.6758 25.8181 9.67578C27.4181 4.07578 39.1515 2.00911 44.8181 1.67577C132.818 -6.82423 133.318 19.6758 132.318 21.6758Z" fill="#5B3E23"/>
<rect x="70.2811" y="90.188" width="8.47239" height="81.9446" rx="4.2362" fill="#5B3E23"/>
<rect width="8.37106" height="24.7989" rx="4.18553" transform="matrix(0.713652 -0.7005 0.717577 0.696479 54.9521 94.8638)" fill="#5B3E23"/>
<rect width="8.36974" height="24.8028" rx="4.18487" transform="matrix(-0.709098 0.70511 -0.722073 -0.691817 93.977 167.904)" fill="#5B3E23"/>
<rect width="8.46228" height="24.5258" rx="4.23114" transform="matrix(0.975624 0.219451 -0.229782 0.973242 95.9423 96.2021)" fill="#5B3E23"/>
<rect width="8.46018" height="24.5321" rx="4.23009" transform="matrix(-0.970475 -0.241202 0.252429 -0.967616 53.3971 166.877)" fill="#5B3E23"/>
<rect width="8.28759" height="25.0437" rx="4.14379" transform="matrix(-0.302511 -0.953146 0.957199 -0.289431 33.5071 129.709)" fill="#5B3E23"/>
<rect width="8.28103" height="25.0627" rx="4.14052" transform="matrix(0.24115 0.970488 -0.973104 0.230365 116.141 133.792)" fill="#5B3E23"/>
<rect width="8.37106" height="24.7989" rx="4.18553" transform="matrix(-0.713652 -0.7005 -0.717577 0.696479 94.0503 95.3003)" fill="#5B3E23"/>
<rect width="8.37237" height="24.795" rx="4.18619" transform="matrix(0.718175 0.695863 0.71305 -0.701113 54.8767 167.715)" fill="#5B3E23"/>
<rect width="8.28049" height="25.0643" rx="4.14024" transform="matrix(0.235369 -0.971906 -0.974402 -0.224814 116.201 128.845)" fill="#5B3E23"/>
<rect width="8.28268" height="25.0579" rx="4.14134" transform="matrix(-0.25798 0.96615 0.969133 0.246539 33.907 133.792)" fill="#5B3E23"/>
<rect width="8.45546" height="24.5464" rx="4.22773" transform="matrix(-0.958779 0.284153 0.29704 0.954865 52.2264 96.2021)" fill="#5B3E23"/>
<rect width="8.46177" height="24.5273" rx="4.23088" transform="matrix(0.974357 -0.225009 -0.235572 -0.971857 95.3145 166.093)" fill="#5B3E23"/>
<rect width="8.32577" height="83.4072" rx="4.16289" transform="matrix(0.533086 -0.846061 0.857386 0.514674 36.3915 113.02)" fill="#5B3E23"/>
<rect width="8.32323" height="83.432" rx="4.16162" transform="matrix(-0.521023 -0.853543 0.864446 -0.502725 40.7281 155.775)" fill="#5B3E23"/>
<path d="M120 174L136.5 51L144 45L126.5 176.5C108.5 191.7 85 194.833 75.5 194.5C47.1 195.7 29.3333 183 24 176.5L22 153L28.5 174C44.9 186 66.6667 187.667 75.5 187C97.5 187.8 114.333 178.667 120 174Z" fill="#5B3F23"/>
<ellipse cx="44" cy="8.5" rx="8" ry="2.5" fill="#D9D9D9"/>
<path d="M12.5 82.5C11.6667 77.3333 9.4 64.7 7 55.5L12.5 57.5V82.5Z" fill="#5B3F23"/>
</svg>
