<svg width="114" height="113" viewBox="0 0 114 113" fill="none" xmlns="http://www.w3.org/2000/svg">
<rect x="51" y="1.58029" width="11" height="109" rx="5.5" fill="#C09E7D"/>
<rect x="31.0979" y="7.80002" width="11" height="32.5826" rx="5.5" transform="rotate(-45.161 31.0979 7.80002)" fill="#C09E7D"/>
<rect x="81.7652" y="104.955" width="11" height="32.5826" rx="5.5" transform="rotate(134.468 81.7652 104.955)" fill="#C09E7D"/>
<rect x="84.3168" y="9.58029" width="11" height="32.5826" rx="5.5" transform="rotate(12.9772 84.3168 9.58029)" fill="#C09E7D"/>
<rect x="29.0789" y="103.59" width="11" height="32.5826" rx="5.5" transform="rotate(-165.714 29.0789 103.59)" fill="#C09E7D"/>
<rect x="3.25504" y="54.1502" width="11" height="32.5826" rx="5.5" transform="rotate(-107.212 3.25504 54.1502)" fill="#C09E7D"/>
<rect x="110.541" y="59.5803" width="11" height="32.5826" rx="5.5" transform="rotate(76.3669 110.541 59.5803)" fill="#C09E7D"/>
<rect width="11" height="32.5826" rx="5.5" transform="matrix(-0.705117 -0.709091 -0.709091 0.705117 81.8604 8.38034)" fill="#C09E7D"/>
<rect width="11" height="32.5826" rx="5.5" transform="matrix(0.709697 0.704507 0.704507 -0.709697 31 104.704)" fill="#C09E7D"/>
<rect width="11" height="32.5826" rx="5.5" transform="matrix(0.230037 -0.973182 -0.973182 -0.230037 110.62 53.0005)" fill="#C09E7D"/>
<rect width="11" height="32.5826" rx="5.5" transform="matrix(-0.252203 0.967674 0.967674 0.252203 3.77423 59.5803)" fill="#C09E7D"/>
<rect width="11" height="32.5826" rx="5.5" transform="matrix(-0.956863 0.290538 0.290538 0.956863 27.559 9.58029)" fill="#C09E7D"/>
<rect width="11" height="32.5826" rx="5.5" transform="matrix(0.973135 -0.230236 -0.230236 -0.973135 83.5017 102.546)" fill="#C09E7D"/>
<rect x="7" y="31.9502" width="11" height="109" rx="5.5" transform="rotate(-58.4085 7 31.9502)" fill="#C09E7D"/>
<rect x="12.6304" y="88.8218" width="11" height="109" rx="5.5" transform="rotate(-120.787 12.6304 88.8218)" fill="#C09E7D"/>
</svg>
